<?xml version="1.0" encoding="UTF-8" standalone="no"?>
<!-- Created with Inkscape (http://www.inkscape.org/) -->

<svg
   version="1.1"
   id="svg1"
   width="286.6517"
   height="1023.9919"
   viewBox="0 0 286.6517 1023.9919"
   sodipodi:docname="84a.svg"
   inkscape:version="1.3.2 (091e20ef0f, 2023-11-25)"
   xmlns:inkscape="http://www.inkscape.org/namespaces/inkscape"
   xmlns:sodipodi="http://sodipodi.sourceforge.net/DTD/sodipodi-0.dtd"
   xmlns="http://www.w3.org/2000/svg"
   xmlns:svg="http://www.w3.org/2000/svg">
  <defs
     id="defs1" />
  <sodipodi:namedview
     id="namedview1"
     pagecolor="#ffffff"
     bordercolor="#000000"
     borderopacity="0.25"
     inkscape:showpageshadow="2"
     inkscape:pageopacity="0.0"
     inkscape:pagecheckerboard="0"
     inkscape:deskcolor="#d1d1d1"
     showgrid="false"
     inkscape:zoom="1.3232369"
     inkscape:cx="157.94602"
     inkscape:cy="152.2781"
     inkscape:window-width="1920"
     inkscape:window-height="1011"
     inkscape:window-x="0"
     inkscape:window-y="0"
     inkscape:window-maximized="1"
     inkscape:current-layer="layer1" />
  <g
     inkscape:groupmode="layer"
     id="layer1"
     inkscape:label="Layer 1"
     transform="translate(-36.678367,-14.666667)">
    <path
       style="fill:#000000"
       d="m 57.333335,1036.9091 c -7.234842,-3.779 -10.45177,-6.5263 -11.679162,-9.9741 -3.246407,-9.1193 -4.320839,-13.4368 -4.320839,-17.363 0,-2.3313 -0.508216,-4.2387 -1.129368,-4.2387 -0.621153,0 -1.654992,-7.04997 -2.29742,-15.66663 -1.413472,-18.95841 -1.716285,-433.06843 -0.329789,-451 C 38.11543,531.7 39.474682,519.4 40.597316,511.33333 c 1.122634,-8.06666 2.705495,-19.76666 3.517469,-26 C 44.926759,479.1 47.108875,468.6 48.963931,462 c 5.597448,-19.91484 9.57767,-34.33323 11.226101,-40.66667 0.858905,-3.3 4.390458,-12.9 7.847895,-21.33333 3.457437,-8.43333 6.614461,-16.53333 7.01561,-18 1.031427,-3.77107 12.112836,-34.57959 15.544619,-43.21714 1.577093,-3.96942 3.700718,-10.56942 4.719167,-14.66666 1.018449,-4.09724 3.04824,-11.94953 4.510646,-17.44953 5.075721,-19.0894 8.347911,-34.05351 9.621441,-44 0.70421,-5.5 1.89748,-13 2.65172,-16.66667 4.22011,-20.51578 8.61101,-66.21033 10.64215,-110.7491 1.43274,-31.4169 1.37719,-35.15038 -0.57929,-38.933785 C 120.91385,93.899617 120,88.9391 120,84.570663 c 0,-9.259018 3.69187,-34.836879 5.52183,-38.256208 0.98234,-1.835507 0.74285,-3.396042 -0.90778,-5.915215 -3.33476,-5.089495 -2.16921,-17.905303 2.03546,-22.380979 l 3.14866,-3.351594 h 56.17766 56.17765 l 2.2566,5.114692 c 3.09852,7.022965 2.87499,14.156865 -0.59047,18.844141 -1.65874,2.243566 -2.52441,4.864469 -2.07404,6.279344 0.42516,1.335669 2.05082,6.028489 3.61256,10.428489 2.23467,6.295839 2.8895,11.494646 3.07404,24.405237 0.22558,15.781322 0.1156,16.495089 -2.89195,18.767783 -3.02347,2.284727 -3.08246,2.688587 -1.79101,12.261427 0.73448,5.44439 1.34597,11.09889 1.35886,12.56555 0.13825,15.73641 6.08346,89.73212 8.14166,101.33334 0.65052,3.66666 2.10797,11.76666 3.23879,18 1.13083,6.23333 2.67205,15.23333 3.42494,20 3.69834,23.41475 5.6586,32.89485 8.13319,39.33333 0.5637,1.46667 2.31601,8.06667 3.89402,14.66667 1.57801,6.6 3.43691,13.8426 4.13089,16.09466 0.69398,2.25207 1.26178,5.72134 1.26178,7.70949 0,1.98816 0.93827,5.84556 2.08504,8.572 2.33008,5.53976 5.97675,16.55174 8.48547,25.62385 0.91255,3.3 3.41235,10.5 5.55512,16 2.14276,5.5 3.89108,10.66999 3.88515,11.48886 -0.006,0.81887 1.12176,4.41887 2.50596,8 10.5032,27.17311 18.63754,70.31161 21.46692,113.84447 1.70269,26.19775 2.77311,368.32983 1.35575,433.33333 -1.2979,59.52497 -2.06029,64.98907 -10.5576,75.66667 -3.38974,4.2594 -3.63016,4.3316 -14.11514,4.236 -13.63627,-0.1244 -24.63162,-1.6886 -25.86177,-3.679 -0.94661,-1.5316 -10.39772,-3.1123 -34.13823,-5.7096 -19.59962,-2.1443 -71.85433,-2.9512 -88.66667,-1.3692 -48.02342,4.5189 -51.207742,5.0598 -57.179816,9.7116 -2.644354,2.0598 -5.563164,2.4755 -17.333334,2.4687 -9.039868,-0.01 -15.357852,-0.6373 -17.486855,-1.7494 z m 27.993791,-7.0525 c 0.007,-3.1513 -3.715656,-2.5192 42.552064,-7.2247 41.86107,-4.2573 102.56346,-3.1287 142.60928,2.6515 10.99188,1.5865 12.1782,2.0537 12.1782,4.7953 0,2.3192 5.79867,2.5226 16.11931,0.5653 11.73264,-2.225 13.17675,-5.3599 17.18725,-37.31067 2.22435,-17.7209 2.25749,-27.16371 0.10942,-31.17822 -1.5518,-2.90013 -1.61536,-4.41852 -0.33334,-7.96388 1.19213,-3.29678 1.57136,-45.26186 1.53281,-169.61923 -0.0522,-168.23388 -1.42954,-271.91452 -3.77167,-283.90533 -0.71619,-3.66667 -1.95106,-12.51117 -2.74414,-19.65444 -0.79308,-7.14328 -3.18195,-19.14328 -5.30861,-26.66667 -2.12665,-7.52339 -4.25075,-16.07889 -4.72022,-19.01223 -0.96046,-6.00108 -7.57388,-27.64041 -8.76113,-28.66666 -0.42418,-0.36667 -1.85485,-4.56667 -3.17924,-9.33334 -1.3244,-4.76666 -3.1697,-10.76666 -4.10066,-13.33333 -0.93097,-2.56667 -2.89166,-7.96667 -4.3571,-12 -5.41696,-14.9091 -15.26049,-53.36143 -23.89267,-93.33333 -4.73353,-21.9189 -5.35822,-25.69734 -7.05555,-42.6754 -0.83615,-8.36384 -2.02318,-15.83344 -2.63784,-16.59912 -0.61467,-0.76568 -1.44568,-7.09215 -1.8467,-14.05882 -0.40102,-6.96666 -1.32793,-18.96666 -2.05982,-26.66666 -2.03652,-21.42587 -3.97418,-45.75642 -4.95422,-62.20851 l -0.8861,-14.87517 -16.16989,-0.84548 c -8.89344,-0.46502 -32.66989,-0.3712 -52.83656,0.2085 L 131.33334,102 l -0.32406,9.33333 c -0.78172,22.51464 -8.82461,111.81562 -11.6484,129.33334 -5.63857,34.97953 -8.56523,51.00266 -9.86322,54 -0.79393,1.83333 -2.33717,8.64954 -3.42943,15.14713 -1.09226,6.49759 -2.53661,12.49759 -3.20966,13.33333 -0.67305,0.83575 -1.66252,4.21954 -2.19881,7.51954 -0.5363,3.3 -1.728731,7.5 -2.649855,9.33333 -0.921123,1.83333 -3.022728,7.53333 -4.670232,12.66667 -1.647505,5.13333 -4.406094,12.33333 -6.130199,16 -1.724105,3.66666 -4.376604,10.93625 -5.894442,16.15462 -1.517837,5.21838 -3.615571,10.61838 -4.66163,12 -1.046058,1.38163 -1.921006,3.51204 -1.944329,4.73427 -0.02332,1.22222 -0.603548,2.42222 -1.289391,2.66666 -0.685843,0.24445 -2.529365,5.54445 -4.096716,11.77778 -1.567351,6.23333 -3.681206,13.17132 -4.697454,15.41776 -1.016249,2.24643 -2.249412,6.59643 -2.740362,9.66666 -0.49095,3.07024 -1.415952,5.58225 -2.055559,5.58225 -0.639608,0 -1.162923,0.96982 -1.162923,2.15516 0,1.18535 -1.764441,9.73535 -3.920979,19 -7.845038,33.7029 -9.89609,51.14005 -10.685663,90.84484 -0.401036,20.16666 -0.728602,125.76666 -0.727924,234.66666 l 0.0012,198 3.20991,14.66667 c 1.765432,8.0667 4.363724,16.3271 5.77398,18.3565 4.34847,6.2577 10.966852,8.7422 22.676601,8.5126 9.547706,-0.1872 10.327593,-0.4145 10.333333,-3.0125 z M 211.78695,92.447654 c 21.459,-0.695256 27.53765,-1.29606 29.11974,-2.878148 1.61368,-1.613679 1.82131,-4.080408 1.0761,-12.784488 -0.50785,-5.93176 -1.8406,-14.085018 -2.96166,-18.118351 -1.12107,-4.033334 -2.40944,-10.333334 -2.86305,-14 -0.71993,-5.819434 -1.24836,-6.727727 -4.15807,-7.14713 -1.83334,-0.264255 -25.03352,-0.04536 -51.55596,0.486444 l -48.22263,0.966908 -0.62345,7.513556 C 131.25508,50.6189 129.70994,58.8 128.16434,64.666667 c -2.81794,10.696053 -3.4827,18.766504 -2.00105,24.293459 0.75626,2.821071 1.554,2.979773 16.98179,3.378371 36.44393,0.941577 42.64493,0.951438 68.64187,0.109157 z m 28.21306,-62.181835 c 0,-0.953799 -0.75,-3.349118 -1.66667,-5.32293 l -1.66667,-3.58875 -50.23103,-0.0104 -50.23104,-0.0104 -4.1023,3.451859 C 123.44956,32.065998 122.97482,32 184,32 c 45.07387,0 56.00001,-0.338355 56.00001,-1.734181 z"
       id="path1" />
  </g>
</svg>
